# ProBuilder 5.2.2
# https://unity3d.com/unity/features/worldbuilding/probuilder
# 5/8/2026 12:28:25 PM

mtllib ./New_Game_Object.mtl
o New Game Object

g New Game Object
v 1.5 -1.5 0.5
v 0.5 -1.5 0.5
v 0.5 -0.5 0.5
v 1.5 0.5 0.5
v 0.5 0.5 0.5
v -0.5 -1.5 0.5
v -0.5 -0.5 0.5
v 0.5 -0.5 1.5
v -1.5 -0.5 1.5
v 0.5 1.5 1.5
v -1.5 1.5 1.5
v -1.5 -0.5 0.5
v -1.5 0.5 0.5
v -1.5 1.5 0.5
v 0.5 1.5 0.5
v -0.5 1.5 0.5
v -0.5 -1.5 -0.5
v -0.5 -1.5 -1.5
v -0.5 -0.5 -0.5
v -0.5 0.5 -1.5
v -0.5 0.5 -0.5
v -1.5 -0.5 -0.5
v -1.5 1.5 -0.5
v -0.5 1.5 -0.5
v 1.5 -1.5 -1.5
v 1.5 0.5 -1.5
v 1.5 -1.5 -0.5
v 1.5 -0.5 -0.5
v 1.5 0.5 -0.5
v 0.5 0.5 -0.5
v 0.5 1.5 -0.5
v 0.5 -1.5 -0.5

vt 0 0
vt -0.5 0
vt -0.5 0.5
vt 0 1
vt -0.5 1
vt -1 0
vt -1 0.5
vt -1 1
vt 1 0
vt 0.5 0
vt 0.5 0.5
vt 1 1
vt 0.5 1
vt 0 0.5
vt 1 0.5

vn 0 0 1
vn -1 0 0
vn 1 0 0
vn 0 1 0
vn 0 -1 0
vn 0 0 -1

usemtl ProBuilderDefault
f 3/3/1 4/4/1 5/5/1
f 13/11/2 11/12/2 14/13/2
f 5/3/3 8/6/3 3/2/3
f 15/14/4 16/11/4 10/4/4
f 3/14/5 8/4/5 7/3/5
f 19/11/2 18/1/2 17/10/2
f 13/11/2 22/1/2 12/10/2
f 21/11/6 23/12/6 24/13/6
f 28/3/3 26/4/3 29/5/3
f 28/3/3 1/6/3 27/2/3
f 29/14/4 26/1/4 30/11/4
f 27/14/5 32/3/5 25/1/5
f 3/3/1 2/2/1 1/1/1
f 1/1/1 4/4/1 3/3/1
f 7/7/1 6/6/1 2/2/1
f 2/2/1 3/3/1 7/7/1
f 11/8/1 9/6/1 8/1/1
f 8/1/1 10/4/1 11/8/1
f 13/11/2 12/10/2 9/9/2
f 9/9/2 11/12/2 13/11/2
f 15/5/3 10/8/3 8/6/3
f 8/6/3 5/3/3 15/5/3
f 14/15/4 11/12/4 10/4/4
f 10/4/4 16/11/4 14/15/4
f 8/4/5 9/8/5 12/7/5
f 12/7/5 7/3/5 8/4/5
f 21/13/2 20/4/2 18/1/2
f 18/1/2 19/11/2 21/13/2
f 19/11/2 17/10/2 6/9/2
f 6/9/2 7/15/2 19/11/2
f 14/13/2 23/4/2 22/1/2
f 22/1/2 13/11/2 14/13/2
f 21/11/6 19/10/6 22/9/6
f 22/9/6 23/12/6 21/11/6
f 24/10/4 23/9/4 14/15/4
f 14/15/4 16/11/4 24/10/4
f 12/7/5 22/6/5 19/2/5
f 19/2/5 7/3/5 12/7/5
f 26/4/6 25/1/6 18/9/6
f 18/9/6 20/12/6 26/4/6
f 28/3/3 27/2/3 25/1/3
f 25/1/3 26/4/3 28/3/3
f 29/5/3 4/8/3 1/6/3
f 1/6/3 28/3/3 29/5/3
f 26/1/4 20/9/4 21/15/4
f 21/15/4 30/11/4 26/1/4
f 30/11/4 5/13/4 4/4/4
f 4/4/4 29/14/4 30/11/4
f 24/13/6 31/4/6 30/14/6
f 30/14/6 21/11/6 24/13/6
f 5/3/3 30/14/3 31/4/3
f 31/4/3 15/5/3 5/3/3
f 16/11/4 15/14/4 31/1/4
f 31/1/4 24/10/4 16/11/4
f 17/7/5 18/6/5 25/1/5
f 25/1/5 32/3/5 17/7/5
f 32/3/5 27/14/5 1/4/5
f 1/4/5 2/5/5 32/3/5
f 2/5/5 6/8/5 17/7/5
f 17/7/5 32/3/5 2/5/5

